<?xml version="1.0" encoding="UTF-8"?>
<svg width="31px" height="34px" viewBox="0 0 31 34" version="1.1" xmlns="http://www.w3.org/2000/svg" xmlns:xlink="http://www.w3.org/1999/xlink">
    <!-- Generator: sketchtool 50 (54983) - http://www.bohemiancoding.com/sketch -->
    <title>4E696C28-0FE9-4CE6-91A2-ADC98DE78129</title>
    <desc>Created with sketchtool.</desc>
    <defs></defs>
    <g id="Page-1" stroke="none" stroke-width="1" fill="none" fill-rule="evenodd">
        <g id="Концепция-FlyDent-1440" transform="translate(-705.000000, -1644.000000)" fill-rule="nonzero" stroke="#FFFFFF" stroke-width="3">
            <g id="Bitmap-+-bokeh-floating-orbs-+-Rectangle-11-Mask-Copy-2" transform="translate(576.000000, 1491.000000)">
                <path d="M149.963152,155 C148.442753,155 146.971609,155.442433 145.708823,156.279786 C144.859264,156.842526 143.777374,156.842526 142.928252,156.279786 C141.665901,155.442433 140.194758,155 138.673922,155 C135.985761,155 133.960595,155.960711 132.655527,157.855545 C131.556637,159.450482 131,161.685749 131,164.499012 C131,172.529496 136.015837,184.969051 138.549692,184.969051 C141.48021,184.969051 142.032053,181.345025 142.519383,178.147303 C142.849791,175.980908 143.224224,173.525514 144.279089,173.525514 C145.418081,173.525514 145.715797,175.953446 146.003923,178.30161 C146.387946,181.441358 146.824712,185 149.653667,185 C151.547193,185 153.917151,179.434935 154.598454,177.72928 C156.488492,172.998954 157.572126,168.100808 157.572126,164.29109 C157.572562,158.299721 154.870452,155 149.963152,155 Z" id="Services_Ico_3"></path>
            </g>
        </g>
    </g>
</svg>