<?xml version="1.0" encoding="UTF-8"?>
<svg width="50px" height="51px" viewBox="0 0 50 51" version="1.1" xmlns="http://www.w3.org/2000/svg" xmlns:xlink="http://www.w3.org/1999/xlink">
    <!-- Generator: sketchtool 50 (54983) - http://www.bohemiancoding.com/sketch -->
    <title>17CEAC52-AC43-41AA-9B3C-5609601A5C3A</title>
    <desc>Created with sketchtool.</desc>
    <defs></defs>
    <g id="Page-1" stroke="none" stroke-width="1" fill="none" fill-rule="evenodd">
        <g id="Страница-стилей-1920" transform="translate(-1355.000000, -18013.000000)" fill-rule="nonzero" stroke-width="3">
            <g id="Menu_Ico_5" transform="translate(1357.000000, 18015.000000)">
                <path d="M30.9776903,7 C28.9750656,7 27.0373196,7.5899105 25.3740157,8.70638149 C24.2550033,9.45670115 22.8299705,9.45670115 21.7115322,8.70638149 C20.0488025,7.5899105 18.1110564,7 16.1078576,7 C12.5670932,7 9.8996063,8.28094851 8.18061024,10.8073928 C6.7331857,12.9339765 6,15.9143322 6,19.6653493 C6,30.3726607 12.6067093,46.9587353 15.9442257,46.9587353 C19.8042159,46.9587353 20.531086,42.1267 21.1729823,37.863071 C21.6081857,34.9745438 22.101378,31.7006858 23.4908136,31.7006858 C24.9910597,31.7006858 25.3832021,34.9379286 25.7627133,38.0688132 C26.2685367,42.2551436 26.843832,47 30.5700459,47 C33.0641404,47 36.1857776,39.579914 37.0831693,37.3057073 C39.5726706,30.9986051 41,24.4677438 41,19.3881204 C41.0005741,11.399628 37.441437,7 30.9776903,7 Z" id="Shape-Copy-4" stroke="#51A2CE"></path>
                <path d="M46,16.627891 C46.0007546,5.90537812 41.3230315,0 32.8278215,0 C30.1958005,0 27.6490486,0.791804332 25.4629921,2.29038179 C23.99229,3.29749449 22.1193898,3.29749449 20.6494423,2.29038179 C18.4641404,0.791804332 15.9173885,0 13.2846129,0 C8.63103675,0 5.12519685,1.71934655 2.86594488,5.11045338 C0.963615486,7.96484949 0,11.9652166 0,17" id="Shape-Copy-4" stroke="#72B0F5" stroke-linecap="round"></path>
            </g>
        </g>
    </g>
</svg>