<svg width="161" height="20" viewBox="0 0 161 20" fill="none" xmlns="http://www.w3.org/2000/svg">
<rect x="1.5" y="1.5" width="158" height="17" rx="8.5" fill="white" stroke="#EA4184" stroke-width="3"/>
<rect width="35" height="20" rx="10" fill="#EA4184"/>
<path d="M11.8486 15H9.77051L9.78418 13.9268H11.8486C12.5596 13.9268 13.152 13.7786 13.626 13.4824C14.0999 13.1816 14.4554 12.7624 14.6924 12.2246C14.9339 11.6823 15.0547 11.0488 15.0547 10.3242V9.71582C15.0547 9.14616 14.9863 8.6403 14.8496 8.19824C14.7129 7.75163 14.5124 7.37565 14.248 7.07031C13.9837 6.76042 13.6602 6.52572 13.2773 6.36621C12.8991 6.20671 12.4639 6.12695 11.9717 6.12695H9.72949V5.04688H11.9717C12.6234 5.04688 13.2181 5.15625 13.7559 5.375C14.2936 5.58919 14.7562 5.90137 15.1436 6.31152C15.5355 6.71712 15.8363 7.20931 16.0459 7.78809C16.2555 8.3623 16.3604 9.00944 16.3604 9.72949V10.3242C16.3604 11.0443 16.2555 11.6937 16.0459 12.2725C15.8363 12.8467 15.5332 13.3366 15.1367 13.7422C14.7448 14.1478 14.2708 14.46 13.7148 14.6787C13.1634 14.8929 12.5413 15 11.8486 15ZM10.4746 5.04688V15H9.15527V5.04688H10.4746ZM24.5361 13.9609V15H18.0215V14.0908L21.2822 10.4609C21.6833 10.0143 21.9932 9.63607 22.2119 9.32617C22.4352 9.01172 22.5902 8.73145 22.6768 8.48535C22.7679 8.2347 22.8135 7.97949 22.8135 7.71973C22.8135 7.3916 22.7451 7.09538 22.6084 6.83105C22.4762 6.56217 22.2803 6.34798 22.0205 6.18848C21.7607 6.02897 21.4463 5.94922 21.0771 5.94922C20.6351 5.94922 20.266 6.03581 19.9697 6.20898C19.6781 6.3776 19.4593 6.61458 19.3135 6.91992C19.1676 7.22526 19.0947 7.57617 19.0947 7.97266H17.8301C17.8301 7.41211 17.9531 6.89941 18.1992 6.43457C18.4453 5.96973 18.8099 5.60059 19.293 5.32715C19.776 5.04915 20.3708 4.91016 21.0771 4.91016C21.7061 4.91016 22.2438 5.02181 22.6904 5.24512C23.137 5.46387 23.4788 5.77376 23.7158 6.1748C23.9574 6.57129 24.0781 7.03613 24.0781 7.56934C24.0781 7.861 24.028 8.15723 23.9277 8.45801C23.832 8.75423 23.6976 9.05046 23.5244 9.34668C23.3558 9.6429 23.1576 9.93457 22.9297 10.2217C22.7064 10.5088 22.4671 10.7913 22.2119 11.0693L19.5459 13.9609H24.5361Z" fill="white"/>
<path d="M61.1934 5.46875V6.39453H57.0801V14H55.9551V5.46875H61.1934ZM56.8164 8.94336H59.1426C59.7676 8.94336 60.2949 9.04883 60.7246 9.25977C61.1543 9.4668 61.4805 9.75781 61.7031 10.1328C61.9258 10.5078 62.0371 10.9473 62.0371 11.4512C62.0371 11.8262 61.9746 12.1699 61.8496 12.4824C61.7246 12.791 61.5391 13.0605 61.293 13.291C61.0469 13.5176 60.7441 13.6934 60.3848 13.8184C60.0254 13.9395 59.6113 14 59.1426 14H55.9551V5.46875H57.0859V13.0801H59.1426C59.5605 13.0801 59.8984 13.0039 60.1562 12.8516C60.418 12.6953 60.6094 12.4922 60.7305 12.2422C60.8516 11.9922 60.9121 11.7246 60.9121 11.4395C60.9121 11.1543 60.8516 10.8926 60.7305 10.6543C60.6094 10.416 60.418 10.2266 60.1562 10.0859C59.8984 9.94141 59.5605 9.86914 59.1426 9.86914H56.8164V8.94336ZM65.1777 13.3438L66.9414 7.66016H68.1016L65.5586 14.9785C65.5 15.1348 65.4219 15.3027 65.3242 15.4824C65.2305 15.666 65.1094 15.8398 64.9609 16.0039C64.8125 16.168 64.6328 16.3008 64.4219 16.4023C64.2148 16.5078 63.9668 16.5605 63.6777 16.5605C63.5918 16.5605 63.4824 16.5488 63.3496 16.5254C63.2168 16.502 63.123 16.4824 63.0684 16.4668L63.0625 15.5879C63.0938 15.5918 63.1426 15.5957 63.209 15.5996C63.2793 15.6074 63.3281 15.6113 63.3555 15.6113C63.6016 15.6113 63.8105 15.5781 63.9824 15.5117C64.1543 15.4492 64.2988 15.3418 64.416 15.1895C64.5371 15.041 64.6406 14.8359 64.7266 14.5742L65.1777 13.3438ZM63.8828 7.66016L65.5293 12.582L65.8105 13.7246L65.0312 14.123L62.6992 7.66016H63.8828ZM71.6641 7.66016V14H70.5742V7.66016H71.6641ZM73.791 7.66016V8.53906H68.4883V7.66016H73.791ZM74.3242 10.9004V10.7656C74.3242 10.3086 74.3906 9.88477 74.5234 9.49414C74.6562 9.09961 74.8477 8.75781 75.0977 8.46875C75.3477 8.17578 75.6504 7.94922 76.0059 7.78906C76.3613 7.625 76.7598 7.54297 77.2012 7.54297C77.6465 7.54297 78.0469 7.625 78.4023 7.78906C78.7617 7.94922 79.0664 8.17578 79.3164 8.46875C79.5703 8.75781 79.7637 9.09961 79.8965 9.49414C80.0293 9.88477 80.0957 10.3086 80.0957 10.7656V10.9004C80.0957 11.3574 80.0293 11.7812 79.8965 12.1719C79.7637 12.5625 79.5703 12.9043 79.3164 13.1973C79.0664 13.4863 78.7637 13.7129 78.4082 13.877C78.0566 14.0371 77.6582 14.1172 77.2129 14.1172C76.7676 14.1172 76.3672 14.0371 76.0117 13.877C75.6562 13.7129 75.3516 13.4863 75.0977 13.1973C74.8477 12.9043 74.6562 12.5625 74.5234 12.1719C74.3906 11.7812 74.3242 11.3574 74.3242 10.9004ZM75.4082 10.7656V10.9004C75.4082 11.2168 75.4453 11.5156 75.5195 11.7969C75.5938 12.0742 75.7051 12.3203 75.8535 12.5352C76.0059 12.75 76.1953 12.9199 76.4219 13.0449C76.6484 13.166 76.9121 13.2266 77.2129 13.2266C77.5098 13.2266 77.7695 13.166 77.9922 13.0449C78.2188 12.9199 78.4062 12.75 78.5547 12.5352C78.7031 12.3203 78.8145 12.0742 78.8887 11.7969C78.9668 11.5156 79.0059 11.2168 79.0059 10.9004V10.7656C79.0059 10.4531 78.9668 10.1582 78.8887 9.88086C78.8145 9.59961 78.7012 9.35156 78.5488 9.13672C78.4004 8.91797 78.2129 8.74609 77.9863 8.62109C77.7637 8.49609 77.502 8.43359 77.2012 8.43359C76.9043 8.43359 76.6426 8.49609 76.416 8.62109C76.1934 8.74609 76.0059 8.91797 75.8535 9.13672C75.7051 9.35156 75.5938 9.59961 75.5195 9.88086C75.4453 10.1582 75.4082 10.4531 75.4082 10.7656ZM84.4316 11.2109H82.3516L82.3398 10.3438H84.0391C84.375 10.3438 84.6543 10.3105 84.877 10.2441C85.1035 10.1777 85.2734 10.0781 85.3867 9.94531C85.5 9.8125 85.5566 9.64844 85.5566 9.45312C85.5566 9.30078 85.5234 9.16797 85.457 9.05469C85.3945 8.9375 85.2988 8.8418 85.1699 8.76758C85.041 8.68945 84.8809 8.63281 84.6895 8.59766C84.502 8.55859 84.2812 8.53906 84.0273 8.53906H82.6387V14H81.5547V7.66016H84.0273C84.4297 7.66016 84.791 7.69531 85.1113 7.76562C85.4355 7.83594 85.7109 7.94336 85.9375 8.08789C86.168 8.22852 86.3438 8.4082 86.4648 8.62695C86.5859 8.8457 86.6465 9.10352 86.6465 9.40039C86.6465 9.5918 86.6074 9.77344 86.5293 9.94531C86.4512 10.1172 86.3359 10.2695 86.1836 10.4023C86.0312 10.5352 85.8438 10.6445 85.6211 10.7305C85.3984 10.8125 85.1426 10.8652 84.8535 10.8887L84.4316 11.2109ZM84.4316 14H81.959L82.498 13.1211H84.4316C84.7324 13.1211 84.9824 13.084 85.1816 13.0098C85.3809 12.9316 85.5293 12.8223 85.627 12.6816C85.7285 12.5371 85.7793 12.3652 85.7793 12.166C85.7793 11.9668 85.7285 11.7969 85.627 11.6562C85.5293 11.5117 85.3809 11.4023 85.1816 11.3281C84.9824 11.25 84.7324 11.2109 84.4316 11.2109H82.7852L82.7969 10.3438H84.8535L85.2461 10.6719C85.5938 10.6992 85.8887 10.7852 86.1309 10.9297C86.373 11.0742 86.5566 11.2578 86.6816 11.4805C86.8066 11.6992 86.8691 11.9375 86.8691 12.1953C86.8691 12.4922 86.8125 12.7539 86.6992 12.9805C86.5898 13.207 86.4297 13.3965 86.2188 13.5488C86.0078 13.6973 85.752 13.8105 85.4512 13.8887C85.1504 13.9629 84.8105 14 84.4316 14ZM88.0352 10.9004V10.7656C88.0352 10.3086 88.1016 9.88477 88.2344 9.49414C88.3672 9.09961 88.5586 8.75781 88.8086 8.46875C89.0586 8.17578 89.3613 7.94922 89.7168 7.78906C90.0723 7.625 90.4707 7.54297 90.9121 7.54297C91.3574 7.54297 91.7578 7.625 92.1133 7.78906C92.4727 7.94922 92.7773 8.17578 93.0273 8.46875C93.2812 8.75781 93.4746 9.09961 93.6074 9.49414C93.7402 9.88477 93.8066 10.3086 93.8066 10.7656V10.9004C93.8066 11.3574 93.7402 11.7812 93.6074 12.1719C93.4746 12.5625 93.2812 12.9043 93.0273 13.1973C92.7773 13.4863 92.4746 13.7129 92.1191 13.877C91.7676 14.0371 91.3691 14.1172 90.9238 14.1172C90.4785 14.1172 90.0781 14.0371 89.7227 13.877C89.3672 13.7129 89.0625 13.4863 88.8086 13.1973C88.5586 12.9043 88.3672 12.5625 88.2344 12.1719C88.1016 11.7812 88.0352 11.3574 88.0352 10.9004ZM89.1191 10.7656V10.9004C89.1191 11.2168 89.1562 11.5156 89.2305 11.7969C89.3047 12.0742 89.416 12.3203 89.5645 12.5352C89.7168 12.75 89.9062 12.9199 90.1328 13.0449C90.3594 13.166 90.623 13.2266 90.9238 13.2266C91.2207 13.2266 91.4805 13.166 91.7031 13.0449C91.9297 12.9199 92.1172 12.75 92.2656 12.5352C92.4141 12.3203 92.5254 12.0742 92.5996 11.7969C92.6777 11.5156 92.7168 11.2168 92.7168 10.9004V10.7656C92.7168 10.4531 92.6777 10.1582 92.5996 9.88086C92.5254 9.59961 92.4121 9.35156 92.2598 9.13672C92.1113 8.91797 91.9238 8.74609 91.6973 8.62109C91.4746 8.49609 91.2129 8.43359 90.9121 8.43359C90.6152 8.43359 90.3535 8.49609 90.127 8.62109C89.9043 8.74609 89.7168 8.91797 89.5645 9.13672C89.416 9.35156 89.3047 9.59961 89.2305 9.88086C89.1562 10.1582 89.1191 10.4531 89.1191 10.7656Z" fill="#EA4184"/>
</svg>
