<svg width="161" height="20" viewBox="0 0 161 20" fill="none" xmlns="http://www.w3.org/2000/svg">
<rect width="161" height="20" rx="10" fill="#8647B2"/>
<circle cx="10" cy="10" r="9" fill="#8647B2" stroke="white" stroke-width="2"/>
<path d="M13.2598 5.04688V5.75781L9.1377 15H7.80469L11.9199 6.08594H6.5332V5.04688H13.2598Z" fill="white"/>
<path d="M42.1738 5.46875V14H41.043V5.46875H42.1738ZM47.4297 5.46875L43.7266 10.1621H41.7227L41.5469 9.22461H43.0527L46.0293 5.46875H47.4297ZM46.293 14L43.0879 10.0156L43.7207 9.02539L47.6758 14H46.293ZM50.084 13.3438L51.8477 7.66016H53.0078L50.4648 14.9785C50.4062 15.1348 50.3281 15.3027 50.2305 15.4824C50.1367 15.666 50.0156 15.8398 49.8672 16.0039C49.7188 16.168 49.5391 16.3008 49.3281 16.4023C49.1211 16.5078 48.873 16.5605 48.584 16.5605C48.498 16.5605 48.3887 16.5488 48.2559 16.5254C48.123 16.502 48.0293 16.4824 47.9746 16.4668L47.9688 15.5879C48 15.5918 48.0488 15.5957 48.1152 15.5996C48.1855 15.6074 48.2344 15.6113 48.2617 15.6113C48.5078 15.6113 48.7168 15.5781 48.8887 15.5117C49.0605 15.4492 49.2051 15.3418 49.3223 15.1895C49.4434 15.041 49.5469 14.8359 49.6328 14.5742L50.084 13.3438ZM48.7891 7.66016L50.4355 12.582L50.7168 13.7246L49.9375 14.123L47.6055 7.66016H48.7891ZM56.3535 10.9707H55.1875V10.3027H56.2656C56.5664 10.3027 56.8047 10.2656 56.9805 10.1914C57.1562 10.1133 57.2812 10.0059 57.3555 9.86914C57.4297 9.73242 57.4668 9.57227 57.4668 9.38867C57.4668 9.22461 57.4238 9.07031 57.3379 8.92578C57.2559 8.77734 57.123 8.6582 56.9395 8.56836C56.7559 8.47461 56.5098 8.42773 56.2012 8.42773C55.9512 8.42773 55.7246 8.47266 55.5215 8.5625C55.3184 8.64844 55.1562 8.76758 55.0352 8.91992C54.918 9.06836 54.8594 9.23633 54.8594 9.42383H53.7754C53.7754 9.03711 53.8848 8.70508 54.1035 8.42773C54.3262 8.14648 54.6211 7.92969 54.9883 7.77734C55.3594 7.625 55.7637 7.54883 56.2012 7.54883C56.5684 7.54883 56.8965 7.58984 57.1855 7.67188C57.4785 7.75 57.7266 7.86719 57.9297 8.02344C58.1328 8.17578 58.2871 8.36719 58.3926 8.59766C58.502 8.82422 58.5566 9.08789 58.5566 9.38867C58.5566 9.60352 58.5059 9.80664 58.4043 9.99805C58.3027 10.1895 58.1562 10.3594 57.9648 10.5078C57.7734 10.6523 57.541 10.7656 57.2676 10.8477C56.998 10.9297 56.6934 10.9707 56.3535 10.9707ZM55.1875 10.5605H56.3535C56.7324 10.5605 57.0664 10.5977 57.3555 10.6719C57.6445 10.7422 57.8867 10.8477 58.082 10.9883C58.2773 11.1289 58.4238 11.3027 58.5215 11.5098C58.623 11.7129 58.6738 11.9473 58.6738 12.2129C58.6738 12.5098 58.6133 12.7773 58.4922 13.0156C58.375 13.25 58.207 13.4492 57.9883 13.6133C57.7695 13.7773 57.5078 13.9023 57.2031 13.9883C56.9023 14.0742 56.5684 14.1172 56.2012 14.1172C55.791 14.1172 55.3926 14.0469 55.0059 13.9062C54.6191 13.7656 54.3008 13.5488 54.0508 13.2559C53.8008 12.959 53.6758 12.582 53.6758 12.125H54.7598C54.7598 12.3164 54.8203 12.498 54.9414 12.6699C55.0625 12.8418 55.2305 12.9805 55.4453 13.0859C55.6641 13.1914 55.916 13.2441 56.2012 13.2441C56.5059 13.2441 56.7598 13.1973 56.9629 13.1035C57.166 13.0098 57.3184 12.8848 57.4199 12.7285C57.5254 12.5723 57.5781 12.4023 57.5781 12.2188C57.5781 11.9805 57.5312 11.7891 57.4375 11.6445C57.3438 11.5 57.1992 11.3945 57.0039 11.3281C56.8125 11.2578 56.5664 11.2227 56.2656 11.2227H55.1875V10.5605ZM60.9707 9.83984H62.875C63.3867 9.83984 63.8184 9.92969 64.1699 10.1094C64.5215 10.2852 64.7871 10.5293 64.9668 10.8418C65.1504 11.1504 65.2422 11.502 65.2422 11.8965C65.2422 12.1895 65.1914 12.4648 65.0898 12.7227C64.9883 12.9766 64.8359 13.1992 64.6328 13.3906C64.4336 13.582 64.1855 13.7324 63.8887 13.8418C63.5957 13.9473 63.2578 14 62.875 14H60.1797V7.66016H61.2637V13.1094H62.875C63.1875 13.1094 63.4375 13.0527 63.625 12.9395C63.8125 12.8262 63.9473 12.6797 64.0293 12.5C64.1113 12.3203 64.1523 12.1328 64.1523 11.9375C64.1523 11.7461 64.1113 11.5586 64.0293 11.375C63.9473 11.1914 63.8125 11.0391 63.625 10.918C63.4375 10.793 63.1875 10.7305 62.875 10.7305H60.9707V9.83984ZM70.2402 12.5586L72.3965 7.66016H73.4395L70.6152 14H69.8652L67.0527 7.66016H68.0957L70.2402 12.5586ZM67.7793 7.66016V14H66.6953V7.66016H67.7793ZM72.666 14V7.66016H73.7559V14H72.666ZM76.6738 12.2832L79.5977 7.66016H80.6875V14H79.5977V9.37695L76.6738 14H75.5957V7.66016H76.6738V12.2832ZM86.7285 10.4082V11.2871H83.377V10.4082H86.7285ZM83.6055 7.66016V14H82.5215V7.66016H83.6055ZM87.6074 7.66016V14H86.5176V7.66016H87.6074ZM90.5312 7.66016V14H89.4473V7.66016H90.5312ZM94.6914 7.66016L91.6855 11.293H90.168L90.0039 10.3438H91.2461L93.373 7.66016H94.6914ZM93.5254 14L91.1934 11.1289L91.8906 10.3438L94.9023 14H93.5254ZM97.0176 12.2832L99.9414 7.66016H101.031V14H99.9414V9.37695L97.0176 14H95.9395V7.66016H97.0176V12.2832Z" fill="white"/>
</svg>
