<svg width="161" height="20" viewBox="0 0 161 20" fill="none" xmlns="http://www.w3.org/2000/svg">
<rect width="161" height="20" rx="10" fill="#C4C4C4"/>
<circle cx="10" cy="10" r="9" fill="#C4C4C4" stroke="white" stroke-width="2"/>
<path d="M8.08496 13.9404H8.21484C8.94401 13.9404 9.53646 13.8379 9.99219 13.6328C10.4479 13.4277 10.7988 13.152 11.0449 12.8057C11.291 12.4593 11.4596 12.0697 11.5508 11.6367C11.6419 11.1992 11.6875 10.7503 11.6875 10.29V8.76562C11.6875 8.31445 11.6351 7.91341 11.5303 7.5625C11.43 7.21159 11.2887 6.91764 11.1064 6.68066C10.9287 6.44368 10.7259 6.26367 10.498 6.14062C10.2702 6.01758 10.0286 5.95605 9.77344 5.95605C9.48177 5.95605 9.21973 6.0153 8.9873 6.13379C8.75944 6.24772 8.56576 6.40951 8.40625 6.61914C8.2513 6.82878 8.13281 7.07487 8.05078 7.35742C7.96875 7.63997 7.92773 7.94759 7.92773 8.28027C7.92773 8.5765 7.96419 8.86361 8.03711 9.1416C8.11003 9.4196 8.22168 9.67025 8.37207 9.89355C8.52246 10.1169 8.70931 10.2946 8.93262 10.4268C9.16048 10.5544 9.42708 10.6182 9.73242 10.6182C10.015 10.6182 10.2793 10.5635 10.5254 10.4541C10.776 10.3402 10.9971 10.1875 11.1885 9.99609C11.3844 9.80013 11.5394 9.5791 11.6533 9.33301C11.7718 9.08691 11.8402 8.82943 11.8584 8.56055H12.46C12.46 8.9388 12.3848 9.3125 12.2344 9.68164C12.0885 10.0462 11.8835 10.3789 11.6191 10.6797C11.3548 10.9805 11.0449 11.222 10.6895 11.4043C10.334 11.582 9.94661 11.6709 9.52734 11.6709C9.03516 11.6709 8.60905 11.5752 8.24902 11.3838C7.889 11.1924 7.59277 10.9372 7.36035 10.6182C7.13249 10.2992 6.96159 9.94368 6.84766 9.55176C6.73828 9.15527 6.68359 8.75423 6.68359 8.34863C6.68359 7.87467 6.74967 7.43034 6.88184 7.01562C7.014 6.60091 7.20996 6.23633 7.46973 5.92188C7.72949 5.60286 8.05078 5.35449 8.43359 5.17676C8.82096 4.99902 9.26758 4.91016 9.77344 4.91016C10.3431 4.91016 10.8285 5.02409 11.2295 5.25195C11.6305 5.47982 11.9564 5.78516 12.207 6.16797C12.4622 6.55078 12.6491 6.98145 12.7676 7.45996C12.8861 7.93848 12.9453 8.43066 12.9453 8.93652V9.39453C12.9453 9.90951 12.9111 10.4336 12.8428 10.9668C12.779 11.4954 12.6536 12.0013 12.4668 12.4844C12.2845 12.9674 12.0179 13.4004 11.667 13.7832C11.3161 14.1615 10.8581 14.4622 10.293 14.6855C9.73242 14.9043 9.03971 15.0137 8.21484 15.0137H8.08496V13.9404Z" fill="white"/>
<path d="M47.5586 9.46484V10.0039C47.5586 10.6445 47.4785 11.2188 47.3184 11.7266C47.1582 12.2344 46.9277 12.666 46.627 13.0215C46.3262 13.377 45.9648 13.6484 45.543 13.8359C45.125 14.0234 44.6562 14.1172 44.1367 14.1172C43.6328 14.1172 43.1699 14.0234 42.748 13.8359C42.3301 13.6484 41.9668 13.377 41.6582 13.0215C41.3535 12.666 41.1172 12.2344 40.9492 11.7266C40.7812 11.2188 40.6973 10.6445 40.6973 10.0039V9.46484C40.6973 8.82422 40.7793 8.25195 40.9434 7.74805C41.1113 7.24023 41.3477 6.80859 41.6523 6.45312C41.957 6.09375 42.3184 5.82031 42.7363 5.63281C43.1582 5.44531 43.6211 5.35156 44.125 5.35156C44.6445 5.35156 45.1133 5.44531 45.5312 5.63281C45.9531 5.82031 46.3145 6.09375 46.6152 6.45312C46.9199 6.80859 47.1523 7.24023 47.3125 7.74805C47.4766 8.25195 47.5586 8.82422 47.5586 9.46484ZM46.4395 10.0039V9.45312C46.4395 8.94531 46.3867 8.49609 46.2812 8.10547C46.1797 7.71484 46.0293 7.38672 45.8301 7.12109C45.6309 6.85547 45.3867 6.6543 45.0977 6.51758C44.8125 6.38086 44.4883 6.3125 44.125 6.3125C43.7734 6.3125 43.4551 6.38086 43.1699 6.51758C42.8887 6.6543 42.6465 6.85547 42.4434 7.12109C42.2441 7.38672 42.0898 7.71484 41.9805 8.10547C41.8711 8.49609 41.8164 8.94531 41.8164 9.45312V10.0039C41.8164 10.5156 41.8711 10.9688 41.9805 11.3633C42.0898 11.7539 42.2461 12.084 42.4492 12.3535C42.6562 12.6191 42.9004 12.8203 43.1816 12.957C43.4668 13.0938 43.7852 13.1621 44.1367 13.1621C44.5039 13.1621 44.8301 13.0938 45.1152 12.957C45.4004 12.8203 45.6406 12.6191 45.8359 12.3535C46.0352 12.084 46.1855 11.7539 46.2871 11.3633C46.3887 10.9688 46.4395 10.5156 46.4395 10.0039ZM51.6719 7.66016V14H50.582V7.66016H51.6719ZM53.7988 7.66016V8.53906H48.4961V7.66016H53.7988ZM55.9492 8.87891V16.4375H54.8594V7.66016H55.8555L55.9492 8.87891ZM60.2207 10.7773V10.9004C60.2207 11.3613 60.166 11.7891 60.0566 12.1836C59.9473 12.5742 59.7871 12.9141 59.5762 13.2031C59.3691 13.4922 59.1133 13.7168 58.8086 13.877C58.5039 14.0371 58.1543 14.1172 57.7598 14.1172C57.3574 14.1172 57.002 14.0508 56.6934 13.918C56.3848 13.7852 56.123 13.5918 55.9082 13.3379C55.6934 13.084 55.5215 12.7793 55.3926 12.4238C55.2676 12.0684 55.1816 11.668 55.1348 11.2227V10.5664C55.1816 10.0977 55.2695 9.67773 55.3984 9.30664C55.5273 8.93555 55.6973 8.61914 55.9082 8.35742C56.123 8.0918 56.3828 7.89062 56.6875 7.75391C56.9922 7.61328 57.3438 7.54297 57.7422 7.54297C58.1406 7.54297 58.4941 7.62109 58.8027 7.77734C59.1113 7.92969 59.3711 8.14844 59.582 8.43359C59.793 8.71875 59.9512 9.06055 60.0566 9.45898C60.166 9.85352 60.2207 10.293 60.2207 10.7773ZM59.1309 10.9004V10.7773C59.1309 10.4609 59.0977 10.1641 59.0312 9.88672C58.9648 9.60547 58.8613 9.35938 58.7207 9.14844C58.584 8.93359 58.4082 8.76562 58.1934 8.64453C57.9785 8.51953 57.7227 8.45703 57.4258 8.45703C57.1523 8.45703 56.9141 8.50391 56.7109 8.59766C56.5117 8.69141 56.3418 8.81836 56.2012 8.97852C56.0605 9.13477 55.9453 9.31445 55.8555 9.51758C55.7695 9.7168 55.7051 9.92383 55.6621 10.1387V11.6562C55.7402 11.9297 55.8496 12.1875 55.9902 12.4297C56.1309 12.668 56.3184 12.8613 56.5527 13.0098C56.7871 13.1543 57.082 13.2266 57.4375 13.2266C57.7305 13.2266 57.9824 13.166 58.1934 13.0449C58.4082 12.9199 58.584 12.75 58.7207 12.5352C58.8613 12.3203 58.9648 12.0742 59.0312 11.7969C59.0977 11.5156 59.1309 11.2168 59.1309 10.9004ZM65.3418 12.916V9.65234C65.3418 9.40234 65.291 9.18555 65.1895 9.00195C65.0918 8.81445 64.9434 8.66992 64.7441 8.56836C64.5449 8.4668 64.2988 8.41602 64.0059 8.41602C63.7324 8.41602 63.4922 8.46289 63.2852 8.55664C63.082 8.65039 62.9219 8.77344 62.8047 8.92578C62.6914 9.07812 62.6348 9.24219 62.6348 9.41797H61.5508C61.5508 9.19141 61.6094 8.9668 61.7266 8.74414C61.8438 8.52148 62.0117 8.32031 62.2305 8.14062C62.4531 7.95703 62.7188 7.8125 63.0273 7.70703C63.3398 7.59766 63.6875 7.54297 64.0703 7.54297C64.5312 7.54297 64.9375 7.62109 65.2891 7.77734C65.6445 7.93359 65.9219 8.16992 66.1211 8.48633C66.3242 8.79883 66.4258 9.19141 66.4258 9.66406V12.6172C66.4258 12.8281 66.4434 13.0527 66.4785 13.291C66.5176 13.5293 66.5742 13.7344 66.6484 13.9062V14H65.5176C65.4629 13.875 65.4199 13.709 65.3887 13.502C65.3574 13.291 65.3418 13.0957 65.3418 12.916ZM65.5293 10.1562L65.541 10.918H64.4453C64.1367 10.918 63.8613 10.9434 63.6191 10.9941C63.377 11.041 63.1738 11.1133 63.0098 11.2109C62.8457 11.3086 62.7207 11.4316 62.6348 11.5801C62.5488 11.7246 62.5059 11.8945 62.5059 12.0898C62.5059 12.2891 62.5508 12.4707 62.6406 12.6348C62.7305 12.7988 62.8652 12.9297 63.0449 13.0273C63.2285 13.1211 63.4531 13.168 63.7188 13.168C64.0508 13.168 64.3438 13.0977 64.5977 12.957C64.8516 12.8164 65.0527 12.6445 65.2012 12.4414C65.3535 12.2383 65.4355 12.041 65.4473 11.8496L65.9102 12.3711C65.8828 12.5352 65.8086 12.7168 65.6875 12.916C65.5664 13.1152 65.4043 13.3066 65.2012 13.4902C65.002 13.6699 64.7637 13.8203 64.4863 13.9414C64.2129 14.0586 63.9043 14.1172 63.5605 14.1172C63.1309 14.1172 62.7539 14.0332 62.4297 13.8652C62.1094 13.6973 61.8594 13.4727 61.6797 13.1914C61.5039 12.9062 61.416 12.5879 61.416 12.2363C61.416 11.8965 61.4824 11.5977 61.6152 11.3398C61.748 11.0781 61.9395 10.8613 62.1895 10.6895C62.4395 10.5137 62.7402 10.3809 63.0918 10.291C63.4434 10.2012 63.8359 10.1562 64.2695 10.1562H65.5293ZM69.2734 7.66016H70.3574L70.2637 10.0332C70.2402 10.6348 70.1719 11.1543 70.0586 11.5918C69.9453 12.0293 69.8008 12.4023 69.625 12.7109C69.4492 13.0156 69.252 13.2715 69.0332 13.4785C68.8184 13.6855 68.5957 13.8594 68.3652 14H67.8262L67.8555 13.1152L68.0781 13.1094C68.207 12.957 68.332 12.8008 68.4531 12.6406C68.5742 12.4766 68.6855 12.2832 68.7871 12.0605C68.8887 11.834 68.9727 11.5586 69.0391 11.2344C69.1094 10.9062 69.1543 10.5059 69.1738 10.0332L69.2734 7.66016ZM69.543 7.66016H73.3574V14H72.2734V8.66211H69.543V7.66016ZM67.5801 13.1094H74.1719V15.8691H73.0879V14H68.6641V15.8691H67.5742L67.5801 13.1094ZM79.6738 10.4082V11.2871H76.3223V10.4082H79.6738ZM76.5508 7.66016V14H75.4668V7.66016H76.5508ZM80.5527 7.66016V14H79.4629V7.66016H80.5527ZM82.0117 10.9004V10.7656C82.0117 10.3086 82.0781 9.88477 82.2109 9.49414C82.3438 9.09961 82.5352 8.75781 82.7852 8.46875C83.0352 8.17578 83.3379 7.94922 83.6934 7.78906C84.0488 7.625 84.4473 7.54297 84.8887 7.54297C85.334 7.54297 85.7344 7.625 86.0898 7.78906C86.4492 7.94922 86.7539 8.17578 87.0039 8.46875C87.2578 8.75781 87.4512 9.09961 87.584 9.49414C87.7168 9.88477 87.7832 10.3086 87.7832 10.7656V10.9004C87.7832 11.3574 87.7168 11.7812 87.584 12.1719C87.4512 12.5625 87.2578 12.9043 87.0039 13.1973C86.7539 13.4863 86.4512 13.7129 86.0957 13.877C85.7441 14.0371 85.3457 14.1172 84.9004 14.1172C84.4551 14.1172 84.0547 14.0371 83.6992 13.877C83.3438 13.7129 83.0391 13.4863 82.7852 13.1973C82.5352 12.9043 82.3438 12.5625 82.2109 12.1719C82.0781 11.7812 82.0117 11.3574 82.0117 10.9004ZM83.0957 10.7656V10.9004C83.0957 11.2168 83.1328 11.5156 83.207 11.7969C83.2812 12.0742 83.3926 12.3203 83.541 12.5352C83.6934 12.75 83.8828 12.9199 84.1094 13.0449C84.3359 13.166 84.5996 13.2266 84.9004 13.2266C85.1973 13.2266 85.457 13.166 85.6797 13.0449C85.9062 12.9199 86.0938 12.75 86.2422 12.5352C86.3906 12.3203 86.502 12.0742 86.5762 11.7969C86.6543 11.5156 86.6934 11.2168 86.6934 10.9004V10.7656C86.6934 10.4531 86.6543 10.1582 86.5762 9.88086C86.502 9.59961 86.3887 9.35156 86.2363 9.13672C86.0879 8.91797 85.9004 8.74609 85.6738 8.62109C85.4512 8.49609 85.1895 8.43359 84.8887 8.43359C84.5918 8.43359 84.3301 8.49609 84.1035 8.62109C83.8809 8.74609 83.6934 8.91797 83.541 9.13672C83.3926 9.35156 83.2812 9.59961 83.207 9.88086C83.1328 10.1582 83.0957 10.4531 83.0957 10.7656ZM91.7734 14.1172C91.332 14.1172 90.9316 14.043 90.5723 13.8945C90.2168 13.7422 89.9102 13.5293 89.6523 13.2559C89.3984 12.9824 89.2031 12.6582 89.0664 12.2832C88.9297 11.9082 88.8613 11.498 88.8613 11.0527V10.8066C88.8613 10.291 88.9375 9.83203 89.0898 9.42969C89.2422 9.02344 89.4492 8.67969 89.7109 8.39844C89.9727 8.11719 90.2695 7.9043 90.6016 7.75977C90.9336 7.61523 91.2773 7.54297 91.6328 7.54297C92.0859 7.54297 92.4766 7.62109 92.8047 7.77734C93.1367 7.93359 93.4082 8.15234 93.6191 8.43359C93.8301 8.71094 93.9863 9.03906 94.0879 9.41797C94.1895 9.79297 94.2402 10.2031 94.2402 10.6484V11.1348H89.5059V10.25H93.1562V10.168C93.1406 9.88672 93.082 9.61328 92.9805 9.34766C92.8828 9.08203 92.7266 8.86328 92.5117 8.69141C92.2969 8.51953 92.0039 8.43359 91.6328 8.43359C91.3867 8.43359 91.1602 8.48633 90.9531 8.5918C90.7461 8.69336 90.5684 8.8457 90.4199 9.04883C90.2715 9.25195 90.1562 9.5 90.0742 9.79297C89.9922 10.0859 89.9512 10.4238 89.9512 10.8066V11.0527C89.9512 11.3535 89.9922 11.6367 90.0742 11.9023C90.1602 12.1641 90.2832 12.3945 90.4434 12.5938C90.6074 12.793 90.8047 12.9492 91.0352 13.0625C91.2695 13.1758 91.5352 13.2324 91.832 13.2324C92.2148 13.2324 92.5391 13.1543 92.8047 12.998C93.0703 12.8418 93.3027 12.6328 93.502 12.3711L94.1582 12.8926C94.0215 13.0996 93.8477 13.2969 93.6367 13.4844C93.4258 13.6719 93.166 13.8242 92.8574 13.9414C92.5527 14.0586 92.1914 14.1172 91.7734 14.1172Z" fill="white"/>
</svg>
