<svg width="161" height="20" viewBox="0 0 161 20" fill="none" xmlns="http://www.w3.org/2000/svg">
<rect width="161" height="20" rx="10" fill="#C4C4C4"/>
<circle cx="10" cy="10" r="9" fill="#C4C4C4" stroke="white" stroke-width="2"/>
<path d="M8.08496 13.9404H8.21484C8.94401 13.9404 9.53646 13.8379 9.99219 13.6328C10.4479 13.4277 10.7988 13.152 11.0449 12.8057C11.291 12.4593 11.4596 12.0697 11.5508 11.6367C11.6419 11.1992 11.6875 10.7503 11.6875 10.29V8.76562C11.6875 8.31445 11.6351 7.91341 11.5303 7.5625C11.43 7.21159 11.2887 6.91764 11.1064 6.68066C10.9287 6.44368 10.7259 6.26367 10.498 6.14062C10.2702 6.01758 10.0286 5.95605 9.77344 5.95605C9.48177 5.95605 9.21973 6.0153 8.9873 6.13379C8.75944 6.24772 8.56576 6.40951 8.40625 6.61914C8.2513 6.82878 8.13281 7.07487 8.05078 7.35742C7.96875 7.63997 7.92773 7.94759 7.92773 8.28027C7.92773 8.5765 7.96419 8.86361 8.03711 9.1416C8.11003 9.4196 8.22168 9.67025 8.37207 9.89355C8.52246 10.1169 8.70931 10.2946 8.93262 10.4268C9.16048 10.5544 9.42708 10.6182 9.73242 10.6182C10.015 10.6182 10.2793 10.5635 10.5254 10.4541C10.776 10.3402 10.9971 10.1875 11.1885 9.99609C11.3844 9.80013 11.5394 9.5791 11.6533 9.33301C11.7718 9.08691 11.8402 8.82943 11.8584 8.56055H12.46C12.46 8.9388 12.3848 9.3125 12.2344 9.68164C12.0885 10.0462 11.8835 10.3789 11.6191 10.6797C11.3548 10.9805 11.0449 11.222 10.6895 11.4043C10.334 11.582 9.94661 11.6709 9.52734 11.6709C9.03516 11.6709 8.60905 11.5752 8.24902 11.3838C7.889 11.1924 7.59277 10.9372 7.36035 10.6182C7.13249 10.2992 6.96159 9.94368 6.84766 9.55176C6.73828 9.15527 6.68359 8.75423 6.68359 8.34863C6.68359 7.87467 6.74967 7.43034 6.88184 7.01562C7.014 6.60091 7.20996 6.23633 7.46973 5.92188C7.72949 5.60286 8.05078 5.35449 8.43359 5.17676C8.82096 4.99902 9.26758 4.91016 9.77344 4.91016C10.3431 4.91016 10.8285 5.02409 11.2295 5.25195C11.6305 5.47982 11.9564 5.78516 12.207 6.16797C12.4622 6.55078 12.6491 6.98145 12.7676 7.45996C12.8861 7.93848 12.9453 8.43066 12.9453 8.93652V9.39453C12.9453 9.90951 12.9111 10.4336 12.8428 10.9668C12.779 11.4954 12.6536 12.0013 12.4668 12.4844C12.2845 12.9674 12.0179 13.4004 11.667 13.7832C11.3161 14.1615 10.8581 14.4622 10.293 14.6855C9.73242 14.9043 9.03971 15.0137 8.21484 15.0137H8.08496V13.9404Z" fill="white"/>
<path d="M43.6328 11.1699L45.8887 5.46875H47.1895L44.1719 12.5762C44.0859 12.7754 43.9902 12.9688 43.8848 13.1562C43.7793 13.3398 43.6504 13.5039 43.498 13.6484C43.3457 13.793 43.1562 13.9082 42.9297 13.9941C42.707 14.0801 42.4297 14.123 42.0977 14.123C42.0039 14.123 41.8926 14.1172 41.7637 14.1055C41.6348 14.0977 41.5508 14.0879 41.5117 14.0762L41.5469 13.1738C41.5898 13.1816 41.6738 13.1895 41.7988 13.1973C41.9238 13.2012 42.0156 13.2031 42.0742 13.2031C42.2969 13.2031 42.4727 13.1582 42.6016 13.0684C42.7305 12.9785 42.834 12.8652 42.9121 12.7285C42.9941 12.5879 43.0684 12.4453 43.1348 12.3008L43.6328 11.1699ZM41.7168 5.46875L44.0898 10.7832L44.3711 11.832L43.4219 11.9023L40.4512 5.46875H41.7168ZM52.1992 7.66016V8.55664H49.1348V7.66016H52.1992ZM53.1543 7.66016V14H52.0703V7.66016H53.1543ZM48.8711 7.66016H49.9609L49.7969 10.7188C49.7695 11.1914 49.7246 11.6094 49.6621 11.9727C49.6035 12.332 49.5215 12.6406 49.416 12.8984C49.3145 13.1562 49.1855 13.3672 49.0293 13.5312C48.877 13.6914 48.6934 13.8105 48.4785 13.8887C48.2637 13.9629 48.0156 14 47.7344 14H47.3945V13.0449L47.6289 13.0273C47.7969 13.0156 47.9395 12.9766 48.0566 12.9102C48.1777 12.8438 48.2793 12.7461 48.3613 12.6172C48.4434 12.4844 48.5098 12.3145 48.5605 12.1074C48.6152 11.9004 48.6562 11.6543 48.6836 11.3691C48.7148 11.084 48.7383 10.752 48.7539 10.373L48.8711 7.66016ZM54.918 13.4258C54.918 13.2422 54.9746 13.0879 55.0879 12.9629C55.2051 12.834 55.373 12.7695 55.5918 12.7695C55.8105 12.7695 55.9766 12.834 56.0898 12.9629C56.207 13.0879 56.2656 13.2422 56.2656 13.4258C56.2656 13.6055 56.207 13.7578 56.0898 13.8828C55.9766 14.0078 55.8105 14.0703 55.5918 14.0703C55.373 14.0703 55.2051 14.0078 55.0879 13.8828C54.9746 13.7578 54.918 13.6055 54.918 13.4258ZM66.3555 11.2871H67.4805C67.4219 11.8262 67.2676 12.3086 67.0176 12.7344C66.7676 13.1602 66.4141 13.498 65.957 13.748C65.5 13.9941 64.9297 14.1172 64.2461 14.1172C63.7461 14.1172 63.291 14.0234 62.8809 13.8359C62.4746 13.6484 62.125 13.3828 61.832 13.0391C61.5391 12.6914 61.3125 12.2754 61.1523 11.791C60.9961 11.3027 60.918 10.7598 60.918 10.1621V9.3125C60.918 8.71484 60.9961 8.17383 61.1523 7.68945C61.3125 7.20117 61.541 6.7832 61.8379 6.43555C62.1387 6.08789 62.5 5.82031 62.9219 5.63281C63.3438 5.44531 63.8184 5.35156 64.3457 5.35156C64.9902 5.35156 65.5352 5.47266 65.9805 5.71484C66.4258 5.95703 66.7715 6.29297 67.0176 6.72266C67.2676 7.14844 67.4219 7.64258 67.4805 8.20508H66.3555C66.3008 7.80664 66.1992 7.46484 66.0508 7.17969C65.9023 6.89062 65.6914 6.66797 65.418 6.51172C65.1445 6.35547 64.7871 6.27734 64.3457 6.27734C63.9668 6.27734 63.6328 6.34961 63.3438 6.49414C63.0586 6.63867 62.8184 6.84375 62.623 7.10938C62.4316 7.375 62.2871 7.69336 62.1895 8.06445C62.0918 8.43555 62.043 8.84766 62.043 9.30078V10.1621C62.043 10.5801 62.0859 10.9727 62.1719 11.3398C62.2617 11.707 62.3965 12.0293 62.5762 12.3066C62.7559 12.584 62.9844 12.8027 63.2617 12.9629C63.5391 13.1191 63.8672 13.1973 64.2461 13.1973C64.7266 13.1973 65.1094 13.1211 65.3945 12.9688C65.6797 12.8164 65.8945 12.5977 66.0391 12.3125C66.1875 12.0273 66.293 11.6855 66.3555 11.2871ZM70.0352 7.66016V14H68.9512V7.66016H70.0352ZM74.1953 7.66016L71.1895 11.293H69.6719L69.5078 10.3438H70.75L72.877 7.66016H74.1953ZM73.0293 14L70.6973 11.1289L71.3945 10.3438L74.4062 14H73.0293ZM74.9336 10.9004V10.7656C74.9336 10.3086 75 9.88477 75.1328 9.49414C75.2656 9.09961 75.457 8.75781 75.707 8.46875C75.957 8.17578 76.2598 7.94922 76.6152 7.78906C76.9707 7.625 77.3691 7.54297 77.8105 7.54297C78.2559 7.54297 78.6562 7.625 79.0117 7.78906C79.3711 7.94922 79.6758 8.17578 79.9258 8.46875C80.1797 8.75781 80.373 9.09961 80.5059 9.49414C80.6387 9.88477 80.7051 10.3086 80.7051 10.7656V10.9004C80.7051 11.3574 80.6387 11.7812 80.5059 12.1719C80.373 12.5625 80.1797 12.9043 79.9258 13.1973C79.6758 13.4863 79.373 13.7129 79.0176 13.877C78.666 14.0371 78.2676 14.1172 77.8223 14.1172C77.377 14.1172 76.9766 14.0371 76.6211 13.877C76.2656 13.7129 75.9609 13.4863 75.707 13.1973C75.457 12.9043 75.2656 12.5625 75.1328 12.1719C75 11.7812 74.9336 11.3574 74.9336 10.9004ZM76.0176 10.7656V10.9004C76.0176 11.2168 76.0547 11.5156 76.1289 11.7969C76.2031 12.0742 76.3145 12.3203 76.4629 12.5352C76.6152 12.75 76.8047 12.9199 77.0312 13.0449C77.2578 13.166 77.5215 13.2266 77.8223 13.2266C78.1191 13.2266 78.3789 13.166 78.6016 13.0449C78.8281 12.9199 79.0156 12.75 79.1641 12.5352C79.3125 12.3203 79.4238 12.0742 79.498 11.7969C79.5762 11.5156 79.6152 11.2168 79.6152 10.9004V10.7656C79.6152 10.4531 79.5762 10.1582 79.498 9.88086C79.4238 9.59961 79.3105 9.35156 79.1582 9.13672C79.0098 8.91797 78.8223 8.74609 78.5957 8.62109C78.373 8.49609 78.1113 8.43359 77.8105 8.43359C77.5137 8.43359 77.252 8.49609 77.0254 8.62109C76.8027 8.74609 76.6152 8.91797 76.4629 9.13672C76.3145 9.35156 76.2031 9.59961 76.1289 9.88086C76.0547 10.1582 76.0176 10.4531 76.0176 10.7656ZM86.1309 4.90039H87.0215C87.0215 5.2832 86.9629 5.58789 86.8457 5.81445C86.7285 6.03711 86.5684 6.20898 86.3652 6.33008C86.166 6.45117 85.9395 6.54297 85.6855 6.60547C85.4355 6.66797 85.1758 6.72852 84.9062 6.78711C84.5703 6.85742 84.2578 6.96875 83.9688 7.12109C83.6836 7.26953 83.4375 7.48047 83.2305 7.75391C83.0273 8.02734 82.877 8.38281 82.7793 8.82031C82.6855 9.25781 82.6602 9.79883 82.7031 10.4434V10.9824H81.8125V10.4434C81.8125 9.7207 81.8809 9.08984 82.0176 8.55078C82.1582 8.01172 82.3555 7.55664 82.6094 7.18555C82.8633 6.81445 83.1641 6.51953 83.5117 6.30078C83.8633 6.08203 84.25 5.93164 84.6719 5.84961C84.9766 5.79102 85.2383 5.72852 85.457 5.66211C85.6758 5.5918 85.8418 5.49805 85.9551 5.38086C86.0723 5.26367 86.1309 5.10352 86.1309 4.90039ZM84.8477 8.02344C85.2617 8.02344 85.6309 8.0957 85.9551 8.24023C86.2793 8.38477 86.5547 8.58594 86.7812 8.84375C87.0078 9.10156 87.1797 9.40625 87.2969 9.75781C87.418 10.1055 87.4785 10.4844 87.4785 10.8945V11.0234C87.4785 11.4648 87.4141 11.875 87.2852 12.2539C87.1602 12.6289 86.9746 12.957 86.7285 13.2383C86.4863 13.5156 86.1895 13.7324 85.8379 13.8887C85.4902 14.0449 85.0938 14.123 84.6484 14.123C84.2031 14.123 83.8047 14.0449 83.4531 13.8887C83.1055 13.7324 82.8086 13.5156 82.5625 13.2383C82.3164 12.957 82.1289 12.6289 82 12.2539C81.875 11.875 81.8125 11.4648 81.8125 11.0234V10.8945C81.8125 10.7969 81.8301 10.7012 81.8652 10.6074C81.9004 10.5137 81.9434 10.418 81.9941 10.3203C82.0488 10.2227 82.0977 10.1191 82.1406 10.0098C82.2852 9.6582 82.4824 9.33203 82.7324 9.03125C82.9863 8.73047 83.2891 8.48828 83.6406 8.30469C83.9961 8.11719 84.3984 8.02344 84.8477 8.02344ZM84.6367 8.9082C84.2383 8.9082 83.9102 9 83.6523 9.18359C83.3984 9.36719 83.209 9.61133 83.084 9.91602C82.959 10.2168 82.8965 10.543 82.8965 10.8945V11.0234C82.8965 11.3203 82.9316 11.6016 83.002 11.8672C83.0723 12.1328 83.1777 12.3691 83.3184 12.5762C83.4629 12.7793 83.6445 12.9395 83.8633 13.0566C84.0859 13.1738 84.3477 13.2324 84.6484 13.2324C84.9492 13.2324 85.209 13.1738 85.4277 13.0566C85.6465 12.9395 85.8262 12.7793 85.9668 12.5762C86.1074 12.3691 86.2129 12.1328 86.2832 11.8672C86.3535 11.6016 86.3887 11.3203 86.3887 11.0234V10.8945C86.3887 10.6289 86.3535 10.377 86.2832 10.1387C86.2129 9.90039 86.1055 9.68945 85.9609 9.50586C85.8203 9.32227 85.6387 9.17773 85.416 9.07227C85.1973 8.96289 84.9375 8.9082 84.6367 8.9082ZM91.3398 14.1172C90.8984 14.1172 90.498 14.043 90.1387 13.8945C89.7832 13.7422 89.4766 13.5293 89.2188 13.2559C88.9648 12.9824 88.7695 12.6582 88.6328 12.2832C88.4961 11.9082 88.4277 11.498 88.4277 11.0527V10.8066C88.4277 10.291 88.5039 9.83203 88.6562 9.42969C88.8086 9.02344 89.0156 8.67969 89.2773 8.39844C89.5391 8.11719 89.8359 7.9043 90.168 7.75977C90.5 7.61523 90.8438 7.54297 91.1992 7.54297C91.6523 7.54297 92.043 7.62109 92.3711 7.77734C92.7031 7.93359 92.9746 8.15234 93.1855 8.43359C93.3965 8.71094 93.5527 9.03906 93.6543 9.41797C93.7559 9.79297 93.8066 10.2031 93.8066 10.6484V11.1348H89.0723V10.25H92.7227V10.168C92.707 9.88672 92.6484 9.61328 92.5469 9.34766C92.4492 9.08203 92.293 8.86328 92.0781 8.69141C91.8633 8.51953 91.5703 8.43359 91.1992 8.43359C90.9531 8.43359 90.7266 8.48633 90.5195 8.5918C90.3125 8.69336 90.1348 8.8457 89.9863 9.04883C89.8379 9.25195 89.7227 9.5 89.6406 9.79297C89.5586 10.0859 89.5176 10.4238 89.5176 10.8066V11.0527C89.5176 11.3535 89.5586 11.6367 89.6406 11.9023C89.7266 12.1641 89.8496 12.3945 90.0098 12.5938C90.1738 12.793 90.3711 12.9492 90.6016 13.0625C90.8359 13.1758 91.1016 13.2324 91.3984 13.2324C91.7812 13.2324 92.1055 13.1543 92.3711 12.998C92.6367 12.8418 92.8691 12.6328 93.0684 12.3711L93.7246 12.8926C93.5879 13.0996 93.4141 13.2969 93.2031 13.4844C92.9922 13.6719 92.7324 13.8242 92.4238 13.9414C92.1191 14.0586 91.7578 14.1172 91.3398 14.1172ZM99.3086 7.66016V8.55664H96.2441V7.66016H99.3086ZM100.264 7.66016V14H99.1797V7.66016H100.264ZM95.9805 7.66016H97.0703L96.9062 10.7188C96.8789 11.1914 96.834 11.6094 96.7715 11.9727C96.7129 12.332 96.6309 12.6406 96.5254 12.8984C96.4238 13.1562 96.2949 13.3672 96.1387 13.5312C95.9863 13.6914 95.8027 13.8105 95.5879 13.8887C95.373 13.9629 95.125 14 94.8438 14H94.5039V13.0449L94.7383 13.0273C94.9062 13.0156 95.0488 12.9766 95.166 12.9102C95.2871 12.8438 95.3887 12.7461 95.4707 12.6172C95.5527 12.4844 95.6191 12.3145 95.6699 12.1074C95.7246 11.9004 95.7656 11.6543 95.793 11.3691C95.8242 11.084 95.8477 10.752 95.8633 10.373L95.9805 7.66016ZM104.641 14.1172C104.199 14.1172 103.799 14.043 103.439 13.8945C103.084 13.7422 102.777 13.5293 102.52 13.2559C102.266 12.9824 102.07 12.6582 101.934 12.2832C101.797 11.9082 101.729 11.498 101.729 11.0527V10.8066C101.729 10.291 101.805 9.83203 101.957 9.42969C102.109 9.02344 102.316 8.67969 102.578 8.39844C102.84 8.11719 103.137 7.9043 103.469 7.75977C103.801 7.61523 104.145 7.54297 104.5 7.54297C104.953 7.54297 105.344 7.62109 105.672 7.77734C106.004 7.93359 106.275 8.15234 106.486 8.43359C106.697 8.71094 106.854 9.03906 106.955 9.41797C107.057 9.79297 107.107 10.2031 107.107 10.6484V11.1348H102.373V10.25H106.023V10.168C106.008 9.88672 105.949 9.61328 105.848 9.34766C105.75 9.08203 105.594 8.86328 105.379 8.69141C105.164 8.51953 104.871 8.43359 104.5 8.43359C104.254 8.43359 104.027 8.48633 103.82 8.5918C103.613 8.69336 103.436 8.8457 103.287 9.04883C103.139 9.25195 103.023 9.5 102.941 9.79297C102.859 10.0859 102.818 10.4238 102.818 10.8066V11.0527C102.818 11.3535 102.859 11.6367 102.941 11.9023C103.027 12.1641 103.15 12.3945 103.311 12.5938C103.475 12.793 103.672 12.9492 103.902 13.0625C104.137 13.1758 104.402 13.2324 104.699 13.2324C105.082 13.2324 105.406 13.1543 105.672 12.998C105.938 12.8418 106.17 12.6328 106.369 12.3711L107.025 12.8926C106.889 13.0996 106.715 13.2969 106.504 13.4844C106.293 13.6719 106.033 13.8242 105.725 13.9414C105.42 14.0586 105.059 14.1172 104.641 14.1172ZM111.35 11.2109H109.27L109.258 10.3438H110.957C111.293 10.3438 111.572 10.3105 111.795 10.2441C112.021 10.1777 112.191 10.0781 112.305 9.94531C112.418 9.8125 112.475 9.64844 112.475 9.45312C112.475 9.30078 112.441 9.16797 112.375 9.05469C112.312 8.9375 112.217 8.8418 112.088 8.76758C111.959 8.68945 111.799 8.63281 111.607 8.59766C111.42 8.55859 111.199 8.53906 110.945 8.53906H109.557V14H108.473V7.66016H110.945C111.348 7.66016 111.709 7.69531 112.029 7.76562C112.354 7.83594 112.629 7.94336 112.855 8.08789C113.086 8.22852 113.262 8.4082 113.383 8.62695C113.504 8.8457 113.564 9.10352 113.564 9.40039C113.564 9.5918 113.525 9.77344 113.447 9.94531C113.369 10.1172 113.254 10.2695 113.102 10.4023C112.949 10.5352 112.762 10.6445 112.539 10.7305C112.316 10.8125 112.061 10.8652 111.771 10.8887L111.35 11.2109ZM111.35 14H108.877L109.416 13.1211H111.35C111.65 13.1211 111.9 13.084 112.1 13.0098C112.299 12.9316 112.447 12.8223 112.545 12.6816C112.646 12.5371 112.697 12.3652 112.697 12.166C112.697 11.9668 112.646 11.7969 112.545 11.6562C112.447 11.5117 112.299 11.4023 112.1 11.3281C111.9 11.25 111.65 11.2109 111.35 11.2109H109.703L109.715 10.3438H111.771L112.164 10.6719C112.512 10.6992 112.807 10.7852 113.049 10.9297C113.291 11.0742 113.475 11.2578 113.6 11.4805C113.725 11.6992 113.787 11.9375 113.787 12.1953C113.787 12.4922 113.73 12.7539 113.617 12.9805C113.508 13.207 113.348 13.3965 113.137 13.5488C112.926 13.6973 112.67 13.8105 112.369 13.8887C112.068 13.9629 111.729 14 111.35 14ZM117.777 13.2266C118.035 13.2266 118.273 13.1738 118.492 13.0684C118.711 12.9629 118.891 12.8184 119.031 12.6348C119.172 12.4473 119.252 12.2344 119.271 11.9961H120.303C120.283 12.3711 120.156 12.7207 119.922 13.0449C119.691 13.3652 119.389 13.625 119.014 13.8242C118.639 14.0195 118.227 14.1172 117.777 14.1172C117.301 14.1172 116.885 14.0332 116.529 13.8652C116.178 13.6973 115.885 13.4668 115.65 13.1738C115.42 12.8809 115.246 12.5449 115.129 12.166C115.016 11.7832 114.959 11.3789 114.959 10.9531V10.707C114.959 10.2812 115.016 9.87891 115.129 9.5C115.246 9.11719 115.42 8.7793 115.65 8.48633C115.885 8.19336 116.178 7.96289 116.529 7.79492C116.885 7.62695 117.301 7.54297 117.777 7.54297C118.273 7.54297 118.707 7.64453 119.078 7.84766C119.449 8.04688 119.74 8.32031 119.951 8.66797C120.166 9.01172 120.283 9.40234 120.303 9.83984H119.271C119.252 9.57812 119.178 9.3418 119.049 9.13086C118.924 8.91992 118.752 8.75195 118.533 8.62695C118.318 8.49805 118.066 8.43359 117.777 8.43359C117.445 8.43359 117.166 8.5 116.939 8.63281C116.717 8.76172 116.539 8.9375 116.406 9.16016C116.277 9.37891 116.184 9.62305 116.125 9.89258C116.07 10.1582 116.043 10.4297 116.043 10.707V10.9531C116.043 11.2305 116.07 11.5039 116.125 11.7734C116.18 12.043 116.271 12.2871 116.4 12.5059C116.533 12.7246 116.711 12.9004 116.934 13.0332C117.16 13.1621 117.441 13.2266 117.777 13.2266ZM122.699 7.66016V14H121.615V7.66016H122.699ZM126.859 7.66016L123.854 11.293H122.336L122.172 10.3438H123.414L125.541 7.66016H126.859ZM125.693 14L123.361 11.1289L124.059 10.3438L127.07 14H125.693ZM131.752 12.916V9.65234C131.752 9.40234 131.701 9.18555 131.6 9.00195C131.502 8.81445 131.354 8.66992 131.154 8.56836C130.955 8.4668 130.709 8.41602 130.416 8.41602C130.143 8.41602 129.902 8.46289 129.695 8.55664C129.492 8.65039 129.332 8.77344 129.215 8.92578C129.102 9.07812 129.045 9.24219 129.045 9.41797H127.961C127.961 9.19141 128.02 8.9668 128.137 8.74414C128.254 8.52148 128.422 8.32031 128.641 8.14062C128.863 7.95703 129.129 7.8125 129.438 7.70703C129.75 7.59766 130.098 7.54297 130.48 7.54297C130.941 7.54297 131.348 7.62109 131.699 7.77734C132.055 7.93359 132.332 8.16992 132.531 8.48633C132.734 8.79883 132.836 9.19141 132.836 9.66406V12.6172C132.836 12.8281 132.854 13.0527 132.889 13.291C132.928 13.5293 132.984 13.7344 133.059 13.9062V14H131.928C131.873 13.875 131.83 13.709 131.799 13.502C131.768 13.291 131.752 13.0957 131.752 12.916ZM131.939 10.1562L131.951 10.918H130.855C130.547 10.918 130.271 10.9434 130.029 10.9941C129.787 11.041 129.584 11.1133 129.42 11.2109C129.256 11.3086 129.131 11.4316 129.045 11.5801C128.959 11.7246 128.916 11.8945 128.916 12.0898C128.916 12.2891 128.961 12.4707 129.051 12.6348C129.141 12.7988 129.275 12.9297 129.455 13.0273C129.639 13.1211 129.863 13.168 130.129 13.168C130.461 13.168 130.754 13.0977 131.008 12.957C131.262 12.8164 131.463 12.6445 131.611 12.4414C131.764 12.2383 131.846 12.041 131.857 11.8496L132.32 12.3711C132.293 12.5352 132.219 12.7168 132.098 12.916C131.977 13.1152 131.814 13.3066 131.611 13.4902C131.412 13.6699 131.174 13.8203 130.896 13.9414C130.623 14.0586 130.314 14.1172 129.971 14.1172C129.541 14.1172 129.164 14.0332 128.84 13.8652C128.52 13.6973 128.27 13.4727 128.09 13.1914C127.914 12.9062 127.826 12.5879 127.826 12.2363C127.826 11.8965 127.893 11.5977 128.025 11.3398C128.158 11.0781 128.35 10.8613 128.6 10.6895C128.85 10.5137 129.15 10.3809 129.502 10.291C129.854 10.2012 130.246 10.1562 130.68 10.1562H131.939ZM135.824 10.9766H136.996L135.162 14H133.99L135.824 10.9766ZM136.732 7.66016H139.381V14H138.297V8.53906H136.732C136.424 8.53906 136.172 8.5918 135.977 8.69727C135.781 8.79883 135.639 8.93164 135.549 9.0957C135.459 9.25977 135.414 9.42969 135.414 9.60547C135.414 9.77734 135.455 9.94336 135.537 10.1035C135.619 10.2598 135.748 10.3887 135.924 10.4902C136.1 10.5918 136.326 10.6426 136.604 10.6426H138.59V11.5332H136.604C136.24 11.5332 135.918 11.4844 135.637 11.3867C135.355 11.2891 135.117 11.1543 134.922 10.9824C134.727 10.8066 134.578 10.6016 134.477 10.3672C134.375 10.1289 134.324 9.87109 134.324 9.59375C134.324 9.31641 134.377 9.06055 134.482 8.82617C134.592 8.5918 134.748 8.38672 134.951 8.21094C135.158 8.03516 135.41 7.90039 135.707 7.80664C136.008 7.70898 136.35 7.66016 136.732 7.66016Z" fill="white"/>
</svg>
