<?xml version="1.0" encoding="UTF-8"?>
<svg width="31px" height="34px" viewBox="0 0 31 34" version="1.1" xmlns="http://www.w3.org/2000/svg" xmlns:xlink="http://www.w3.org/1999/xlink">
    <!-- Generator: sketchtool 50 (54983) - http://www.bohemiancoding.com/sketch -->
    <title>80FB455C-7E1A-465B-B215-4E52B784ACE3</title>
    <desc>Created with sketchtool.</desc>
    <defs></defs>
    <g id="Page-1" stroke="none" stroke-width="1" fill="none" fill-rule="evenodd">
        <g id="Страница-стилей-1920" transform="translate(-1121.000000, -18023.000000)" fill-rule="nonzero" stroke="#51A2CE" stroke-width="3">
            <path d="M1142.2685,18025 C1140.72362,18025 1139.22879,18025.4424 1137.94567,18026.2798 C1137.08243,18026.8425 1135.98312,18026.8425 1135.12032,18026.2798 C1133.83765,18025.4424 1132.34281,18025 1130.79749,18025 C1128.06604,18025 1126.00827,18025.9607 1124.68219,18027.8555 C1123.5656,18029.4505 1123,18031.6857 1123,18034.499 C1123,18042.5295 1128.0966,18054.9691 1130.67126,18054.9691 C1133.64897,18054.9691 1134.20969,18051.345 1134.70487,18048.1473 C1135.0406,18045.9809 1135.42106,18043.5255 1136.49291,18043.5255 C1137.65025,18043.5255 1137.95276,18045.9534 1138.24552,18048.3016 C1138.63573,18051.4414 1139.07953,18055 1141.95404,18055 C1143.87805,18055 1146.28617,18049.4349 1146.97844,18047.7293 C1148.89892,18042.999 1150,18038.1008 1150,18034.2911 C1150.00044,18028.2997 1147.25482,18025 1142.2685,18025 Z" id="Menu_Ico_4"></path>
        </g>
    </g>
</svg>