<?xml version="1.0" encoding="UTF-8"?>
<svg width="40px" height="45px" viewBox="0 0 40 45" version="1.1" xmlns="http://www.w3.org/2000/svg" xmlns:xlink="http://www.w3.org/1999/xlink">
    <!-- Generator: sketchtool 50 (54983) - http://www.bohemiancoding.com/sketch -->
    <title>86B6F202-BD1F-4984-9AD6-5AC5FA881C5A</title>
    <desc>Created with sketchtool.</desc>
    <defs></defs>
    <g id="Page-1" stroke="none" stroke-width="1" fill="none" fill-rule="evenodd">
        <g id="Страница-стилей-1920" transform="translate(-465.000000, -18017.000000)" stroke-width="3">
            <g id="Menu_Ico_1" transform="translate(467.000000, 18019.000000)">
                <path d="M26,0 L26,8.59808247 C26,9.92462489 24.9254834,11 23.6,11 L12.4,11 C11.0745166,11 10,9.92462489 10,8.59808247 L10,0.102341003" id="Rectangle-8" stroke="#72B0F5"></path>
                <path d="M25.6913386,0 C23.6314961,0 21.6383858,0.604658259 19.9275591,1.74904103 C18.7765748,2.51811868 17.3108268,2.51811868 16.1604331,1.74904103 C14.4501969,0.604658259 12.4570866,1.0582156e-15 10.3966535,1.0582156e-15 C6.75472441,1.0582156e-15 4.01102362,1.31297222 2.24291339,3.90257759 C0.754133858,6.08232593 0,9.13719051 0,12.981983 C0,23.9569772 6.79547244,40.9577037 10.2283465,40.9577037 C14.198622,40.9577037 14.9462598,36.0048675 15.6064961,31.6346478 C16.0541339,28.6739074 16.5614173,25.318203 17.9905512,25.318203 C19.5336614,25.318203 19.9370079,28.6363768 20.3273622,31.8455335 C20.8476378,36.1365221 21.4393701,41 25.2720472,41 C27.8374016,41 31.0482283,33.3944118 31.9712598,31.06335 C34.5318898,24.5985703 36,17.9044374 36,12.6978234 C36.0005906,4.50961874 32.3397638,0 25.6913386,0 Z" id="Shape" stroke="#51A2CE" fill-rule="nonzero"></path>
            </g>
        </g>
    </g>
</svg>